<?xml version="1.0" encoding="UTF-8" standalone="no"?>
<svg
   clip-rule="evenodd"
   fill-rule="evenodd"
   viewBox="0 0 301.03986 301.03986"
   version="1.1"
   id="svg922"
   sodipodi:docname="logo.svg"
   width="301.03986"
   height="301.03986"
   inkscape:version="1.1.1 (1:1.1+202109281949+c3084ef5ed)"
   xmlns:inkscape="http://www.inkscape.org/namespaces/inkscape"
   xmlns:sodipodi="http://sodipodi.sourceforge.net/DTD/sodipodi-0.dtd"
   xmlns="http://www.w3.org/2000/svg"
   xmlns:svg="http://www.w3.org/2000/svg">
  <defs
     id="defs926" />
  <sodipodi:namedview
     id="namedview924"
     pagecolor="#ffffff"
     bordercolor="#666666"
     borderopacity="1.0"
     inkscape:pageshadow="2"
     inkscape:pageopacity="0.0"
     inkscape:pagecheckerboard="0"
     showgrid="false"
     fit-margin-top="0"
     fit-margin-left="0"
     fit-margin-right="0"
     fit-margin-bottom="0"
     inkscape:zoom="1.5344217"
     inkscape:cx="141.42136"
     inkscape:cy="38.450968"
     inkscape:window-width="3820"
     inkscape:window-height="1032"
     inkscape:window-x="0"
     inkscape:window-y="28"
     inkscape:window-maximized="1"
     inkscape:current-layer="svg922" />
  <path
     d="m 39.441752,154.07373 20.65303,-52.33272 51.632568,40.78172 -3.32496,-96.964785 -5.07586,7.525895 -1.57509,-6.825739 -4.550498,6.650959 -2.10046,-14.527449 -7.00156,55.833499 -37.10512,-27.82936 -9.10098,9.45158 z"
     fill="#ffcc00"
     stroke="#ffcc00"
     id="path894"
     style="fill:#ffffff;stroke:none;stroke-width:0.697035;fill-opacity:1" />
  <path
     id="path896"
     style="fill:#ffffff;stroke:none;stroke-width:0.697035;fill-opacity:1"
     d="M 200.11523 48.183594 L 178.76172 80.738281 L 193.99023 115.74219 L 222.16797 151.97266 L 245.27148 160.02539 L 272.05078 124.8457 L 265.92578 95.964844 L 238.79688 57.810547 L 200.11523 48.183594 z M 225.02539 75.767578 L 229.85156 75.767578 L 233.81055 82.203125 L 231.08789 87.525391 L 224.77734 87.400391 L 221.06445 81.708984 L 225.02539 75.767578 z M 204.97461 89.628906 L 209.67773 90.867188 L 211.16211 95.199219 L 205.96484 98.539062 L 201.26172 95.570312 L 201.50977 92.103516 L 204.97461 89.628906 z M 252.97266 106.29102 L 254.89844 118.19336 L 253.14844 125.89453 L 247.54883 132.37109 L 241.07227 136.2207 L 228.99414 135.52148 L 220.24414 128.3457 L 227.07031 130.61914 L 238.79688 130.61914 L 244.39648 126.76953 L 248.77344 120.64453 L 252.97266 106.29102 z " />
  <path
     d="m 122.57924,152.32386 52.50751,-39.55618 -9.97592,1.40031 5.9508,-5.07587 -8.05127,1.75091 10.67608,-7.87649 -35.87959,6.47618 -1.22554,-12.07743 48.48239,-35.53003 -50.05748,3.67556 44.98162,-29.579234 -15.57716,1.749869 13.12713,-10.501293 -7.35111,-0.349557 10.67607,-7.701711 -61.43371,20.30347 z"
     fill="#ffcc00"
     stroke="#ffcc00"
     id="path898"
     style="fill:#ffffff;stroke:none;stroke-width:0.697035;fill-opacity:1" />
  <path
     d="m 110.50286,207.28139 43.2307,57.58338 -4.72527,-10.85086 6.82574,5.42543 -3.32496,-10.67607 7.70067,1.92465 -25.90367,-49.88167 46.73148,1.39928 -24.85292,-42.00622 38.50543,12.95236 -6.82573,-7.52589 11.37622,2.9754 -9.10098,-11.72683 5.07587,0.52538 -32.20508,-26.25427 z"
     fill="#37abc8"
     stroke="#37abc8"
     id="path900"
     style="fill:#ffffff;stroke:none;stroke-width:0.697035;fill-opacity:1" />
  <path
     id="path904"
     style="fill:#ffffff;stroke:none;stroke-width:0.697035;fill-opacity:1"
     d="M 263.125 166.85156 L 213.24219 167.90039 L 177.1875 214.80859 L 177.01172 248.76367 L 191.53906 262.76562 L 219.19336 255.76367 L 261.55078 215.85742 L 263.125 166.85156 z M 227.62305 180.96484 L 230.7168 187.52344 L 227.5 195.69336 L 219.94922 197.17773 L 214.00977 190.86523 L 217.8457 182.69727 L 227.62305 180.96484 z M 241.98047 199.40625 L 247.30078 200.64258 L 247.17773 205.3457 L 243.96094 209.42969 L 238.51562 206.33594 L 238.14258 201.26172 L 241.98047 199.40625 z M 202.39062 217.43359 L 206.5918 225.83398 L 213.24219 228.28516 L 221.29297 224.78516 L 228.29492 238.08594 L 212.54297 244.73633 L 205.54102 244.38672 L 202.39062 239.13672 L 193.63867 240.1875 L 189.78906 227.93359 L 193.28906 220.93359 L 202.39062 217.43359 z " />
  <path
     d="m 101.05128,148.47353 c -5.173658,-3.45604 -14.158118,-8.72646 -23.278868,-7.17634 -42.52015,7.22732 -39.66959,59.50282 -20.30243,88.21232 10.73745,15.9184 42.37449,36.58495 60.209208,40.78172 l -14.52744,-84.1872 -28.178918,9.10098 7.70067,0.17478 -9.80114,8.05127 h 9.97592 l -8.92621,7.17633 h 16.8027 l 5.77602,23.10305 -0.17478,-0.34955 c -8.92412,-2.5343 -18.72734,-10.76346 -24.69063,-16.78501 -17.33327,-17.49973 -19.07065,-51.26741 10.51274,-52.70101 13.62546,3.70573 24.132998,13.79608 35.355248,19.25376 z"
     fill="#37abc8"
     stroke="#37abc8"
     id="path906"
     style="fill:#ffffff;stroke:none;stroke-width:0.697035;fill-opacity:1" />
</svg>
